<?xml version="1.0" standalone="no"?>
<!DOCTYPE svg PUBLIC "-//W3C//DTD SVG 20010904//EN"
 "http://www.w3.org/TR/2001/REC-SVG-20010904/DTD/svg10.dtd">
<svg version="1.0" xmlns="http://www.w3.org/2000/svg"
 width="750.000000pt" height="300.000000pt" fill="#000000" viewBox="0 0 750.000000 300.000000"
 preserveAspectRatio="xMidYMid meet">

<g transform="translate(0.000000,300.000000) scale(0.100000,-0.100000)" stroke="none">
<path fill="inherit" d="M1410 2860 c-30 -6 -27 -8 26 -9 181 -4 432 -86 597 -195 82 -54 206
-167 265 -240 101 -124 194 -301 229 -435 42 -157 55 -354 33 -501 -38 -266
-221 -607 -386 -721 -141 -97 -369 -94 -509 6 -234 167 -275 482 -91 698 205
240 600 202 764 -72 14 -25 36 -78 47 -119 l22 -73 18 47 c53 139 75 261 75
415 0 809 -842 1354 -1587 1026 -137 -60 -202 -105 -319 -222 -189 -189 -310
-415 -370 -690 -24 -111 -24 -366 -1 -495 54 -294 221 -585 445 -776 340 -290
796 -399 1211 -289 449 119 806 450 950 881 119 354 77 776 -106 1091 -246
421 -703 687 -1173 682 -58 -1 -121 -5 -140 -9z"/>
<path fill="inherit" d="M4777 2678 c-37 -19 -80 -32 -118 -35 -32 -3 -59 -8 -59 -10 0 -2 16
-19 35 -37 l35 -33 0 -149 0 -148 -27 26 c-76 73 -218 63 -310 -21 -74 -68
-113 -169 -113 -296 0 -214 110 -364 268 -365 61 0 103 15 149 54 35 29 35 29
47 -26 l6 -28 120 0 c66 0 120 2 120 5 0 3 -15 18 -32 34 l-33 29 -3 516 c-2
397 -5 516 -15 515 -7 -1 -38 -14 -70 -31z m-184 -449 c12 -6 34 -23 50 -37
l27 -26 0 -197 0 -198 -35 -27 c-24 -18 -52 -29 -86 -32 -46 -4 -51 -2 -83 31
-97 103 -85 415 18 478 35 21 77 24 109 8z"/>
<path fill="inherit" d="M6264 2609 c-23 -24 -29 -39 -29 -75 0 -39 5 -50 33 -75 80 -71 200
1 171 104 -22 79 -118 105 -175 46z"/>
<path fill="inherit" d="M3730 2343 c-137 -23 -224 -112 -205 -210 9 -52 45 -83 95 -83 85 0
128 89 81 167 -19 30 -19 32 -1 48 29 27 90 29 127 6 40 -25 60 -63 69 -128 6
-49 5 -51 -27 -76 -19 -13 -79 -41 -134 -61 -149 -55 -149 -55 -178 -82 -43
-40 -58 -68 -59 -116 -1 -62 17 -109 55 -145 78 -73 217 -72 306 3 18 15 34
25 36 23 2 -2 7 -20 12 -39 l9 -35 122 -3 c79 -2 122 1 122 8 0 5 -7 10 -15
10 -8 0 -23 12 -32 27 -15 23 -19 60 -23 258 -5 190 -9 237 -23 270 -36 81
-113 134 -222 154 -60 11 -70 12 -115 4z m170 -437 c0 -142 -9 -162 -83 -191
-47 -18 -89 -9 -113 23 -20 26 -17 102 5 139 17 28 164 150 184 152 4 1 7 -55
7 -123z"/>
<path fill="inherit" d="M5200 2321 c-31 -23 -108 -50 -167 -58 -49 -7 -53 -14 -19 -32 42
-23 46 -49 46 -292 0 -246 -8 -295 -50 -306 -56 -15 -4 -23 145 -23 103 0 165
4 165 10 0 6 -6 10 -14 10 -8 0 -24 12 -35 26 -20 25 -21 39 -21 257 0 216 1
232 21 264 42 67 124 82 163 30 20 -27 21 -43 24 -254 3 -191 1 -233 -13 -269
-9 -24 -25 -46 -36 -49 -53 -17 -6 -25 146 -25 103 0 165 4 165 10 0 6 -6 10
-14 10 -8 0 -24 12 -35 26 -20 25 -21 39 -21 257 0 216 1 232 21 264 42 67
124 82 163 30 20 -27 21 -43 24 -254 3 -191 1 -233 -13 -269 -9 -24 -25 -46
-36 -49 -53 -17 -6 -25 146 -25 103 0 165 4 165 10 0 6 -6 10 -13 10 -8 0 -22
9 -33 21 -17 19 -19 44 -24 278 -5 231 -8 260 -27 302 -30 67 -81 102 -154
107 -80 6 -136 -16 -190 -75 -39 -42 -44 -45 -53 -28 -25 42 -62 79 -93 91
-81 34 -196 5 -253 -65 l-30 -36 0 58 c0 63 -8 69 -50 38z"/>
<path fill="inherit" d="M6365 2310 c-30 -18 -78 -34 -122 -42 -40 -6 -73 -16 -73 -20 0 -4 6
-8 14 -8 8 0 24 -12 35 -26 20 -25 21 -39 21 -279 0 -240 -1 -254 -21 -279
-11 -14 -27 -26 -35 -26 -8 0 -14 -4 -14 -10 0 -6 62 -10 165 -10 91 0 165 3
165 8 0 4 -9 13 -21 20 -45 28 -49 61 -49 392 0 170 -3 310 -7 309 -5 0 -30
-13 -58 -29z"/>
<path fill="inherit" d="M6770 2321 c-36 -26 -101 -49 -159 -57 -28 -4 -51 -10 -51 -15 0 -5
7 -9 15 -9 8 0 24 -15 35 -32 18 -31 20 -51 20 -273 0 -222 -2 -242 -20 -272
-11 -18 -27 -33 -35 -33 -8 0 -15 -4 -15 -10 0 -6 62 -10 165 -10 103 0 165 4
165 10 0 6 -7 10 -15 10 -8 0 -24 15 -35 33 -18 29 -20 50 -20 261 l0 229 44
43 c34 35 50 44 77 44 80 -1 89 -30 89 -306 0 -241 -8 -290 -50 -301 -56 -15
-4 -23 145 -23 103 0 165 4 165 10 0 6 -7 10 -15 10 -8 0 -24 15 -35 33 -18
29 -20 50 -20 263 0 262 -8 309 -62 361 -41 40 -76 53 -137 53 -64 0 -113 -22
-161 -71 l-40 -41 0 56 c0 62 -8 68 -50 37z"/>
<path fill="inherit" d="M3669 1409 c-35 -18 -80 -31 -118 -35 -33 -4 -61 -11 -61 -15 0 -5 5
-9 10 -9 6 0 22 -11 35 -25 l25 -24 0 -446 0 -446 -25 -24 c-13 -14 -29 -25
-35 -25 -5 0 -10 -4 -10 -10 0 -6 62 -10 165 -10 91 0 165 3 165 6 0 3 -11 15
-25 26 -38 30 -45 77 -45 300 l0 208 43 45 c38 39 49 45 85 45 32 0 45 -6 61
-26 20 -25 21 -39 21 -271 0 -260 -5 -294 -50 -308 -54 -17 -7 -25 145 -25 91
0 165 3 165 6 0 3 -11 15 -25 26 -38 30 -45 77 -45 314 0 234 -5 264 -48 323
-31 42 -77 61 -147 61 -72 0 -112 -18 -164 -71 l-41 -43 0 242 c0 187 -3 242
-12 241 -7 -1 -38 -14 -69 -30z"/>
<path fill="inherit" d="M6405 1424 c-26 -19 -139 -54 -176 -54 -36 0 -37 -8 -3 -35 14 -11
29 -37 34 -60 13 -56 13 -800 0 -847 -6 -20 -22 -46 -35 -56 -14 -11 -25 -23
-25 -26 0 -3 72 -6 160 -6 88 0 160 3 160 6 0 3 -11 15 -25 26 -13 10 -29 36
-35 56 -6 23 -10 221 -10 525 0 515 1 506 -45 471z"/>
<path fill="inherit" d="M5197 1180 c-41 -63 -108 -116 -163 -126 -27 -5 -34 -11 -34 -29 0
-19 6 -24 33 -27 l32 -3 5 -270 c5 -296 7 -306 70 -358 33 -28 101 -43 148
-32 52 11 106 58 140 122 31 58 31 61 13 77 -18 16 -19 16 -25 -7 -3 -14 -19
-39 -36 -57 -36 -39 -73 -38 -104 3 -20 27 -21 40 -21 275 l0 247 35 0 c19 0
52 -4 73 -8 l37 -8 0 41 0 40 -75 0 -75 0 0 90 c0 50 -3 90 -7 89 -5 0 -25
-27 -46 -59z"/>
<path fill="inherit" d="M4521 1065 c-63 -18 -96 -40 -150 -101 -106 -120 -118 -333 -28 -482
104 -173 353 -200 490 -53 81 86 115 211 97 344 -14 94 -50 166 -114 224 -79
72 -188 98 -295 68z m154 -78 c51 -51 70 -126 69 -282 0 -157 -18 -231 -69
-282 -77 -77 -166 -12 -194 142 -25 135 -5 334 41 401 44 64 102 72 153 21z"/>
<path fill="inherit" d="M5760 1066 c-93 -25 -163 -87 -209 -186 -33 -73 -41 -209 -16 -296
44 -155 153 -246 295 -247 109 -1 199 55 271 166 37 56 38 61 23 78 -16 18
-18 17 -44 -19 -60 -83 -128 -122 -211 -122 -47 0 -55 3 -94 43 -41 40 -73
113 -57 128 4 4 98 40 210 80 l204 74 -7 45 c-23 150 -91 232 -213 259 -65 14
-94 13 -152 -3z m127 -61 c30 -21 46 -77 47 -170 l1 -79 -115 -42 c-63 -23
-117 -40 -118 -39 -11 10 21 213 39 256 35 81 94 110 146 74z"/>
</g>
</svg>
