<svg version="1.1" id="Layer_1" xmlns="http://www.w3.org/2000/svg"  fill="green" xmlns:xlink="http://www.w3.org/1999/xlink" x="0px" y="0px"
	 width="100%" viewBox="0 0 750 300" enable-background="new 0 0 750 300" xml:space="preserve">
<path fill="red" opacity="1.000000" stroke="none"
	d="
M555.000000,301.000000
	C370.043915,301.000000 185.587799,301.000000 1.065850,301.000000
	C1.065850,201.067734 1.065850,101.135406 1.065850,1.101542
	C250.999985,1.101542 500.999969,1.101542 750.976562,1.101542
	C750.976562,101.078896 750.976562,201.039459 750.976562,301.000000
	C685.802063,301.000000 620.651001,301.000000 555.000000,301.000000
M350.077728,166.966324
	C351.738770,172.098404 353.369080,177.241074 355.123444,182.341049
	C355.254059,182.720749 356.274536,182.794327 357.034790,183.935211
	C357.043640,207.096924 357.038055,230.258667 357.072906,253.420349
	C357.080383,258.374298 356.102783,262.701080 350.936584,264.878784
	C350.477203,265.072418 350.257111,265.833771 349.731506,266.623596
	C361.273346,266.623596 372.365845,266.623596 383.458313,266.623596
	C383.733643,266.257812 384.008942,265.892029 384.284241,265.526245
	C376.250763,263.005463 376.718933,256.734192 376.717529,250.672913
	C376.714813,239.175247 376.672394,227.677338 376.733917,216.180008
	C376.764130,210.531845 383.046661,204.092880 388.470123,203.959366
	C394.007690,203.823029 396.839539,207.362473 396.925140,215.085098
	C397.054352,226.747879 396.837585,238.415451 397.046814,250.075974
	C397.162262,256.510559 396.518097,262.352325 390.142456,265.838959
	C390.052795,265.887970 390.237488,266.438629 390.287140,266.716003
	C401.357910,266.716003 412.401764,266.716003 423.445587,266.716003
	C423.764557,266.375183 424.083496,266.034393 424.402466,265.693573
	C415.734497,262.698151 416.793884,255.800003 416.721771,249.364288
	C416.693756,246.865097 416.758026,244.364563 416.710266,241.865982
	C416.509796,231.380875 416.858887,220.843994 415.913513,210.425278
	C414.834229,198.531158 405.638153,192.214355 393.762054,193.601868
	C386.701233,194.426804 381.573486,198.049347 376.465576,204.845474
	C376.465576,187.805267 376.465576,172.335831 376.465576,157.516724
	C367.660828,159.752960 359.440521,161.805801 351.266113,164.027710
	C350.886383,164.130920 350.917694,165.746384 350.077728,166.966324
M291.068176,146.524643
	C288.374634,88.877251 260.227417,48.261295 208.200012,24.278198
	C187.202347,14.598907 146.377304,10.236575 140.903854,15.318757
	C148.937500,16.543926 157.464859,17.180910 165.651260,19.200201
	C220.020950,32.611248 257.017609,78.733231 257.929230,134.083862
	C258.418396,163.783279 247.703278,189.689468 230.366287,213.250305
	C218.380508,229.538864 198.920273,235.971985 179.358444,230.023514
	C161.417175,224.567841 147.666290,206.392563 147.053192,187.323944
	C146.363632,165.877472 160.318207,146.511398 180.684418,140.650696
	C201.112076,134.772324 223.542938,143.383453 234.122711,161.836960
	C237.553467,167.820938 239.401367,174.712372 241.947556,181.123978
	C254.127762,152.193787 255.494003,122.730171 243.308105,93.153725
	C225.397079,49.681873 184.817505,21.431408 136.447281,22.253103
	C89.650925,23.048065 55.814587,46.587269 35.637939,87.764259
	C11.055985,137.931702 15.342361,187.199905 49.737637,231.499802
	C83.320183,274.752930 129.059631,291.640259 182.669769,281.260040
	C245.666443,269.062378 291.861572,213.629593 291.068176,146.524643
M546.279846,115.498093
	C545.368591,123.899529 549.745483,133.702362 538.028381,139.958008
	C550.867188,139.958008 561.868347,139.958008 572.869446,139.958008
	C573.170166,139.645599 573.470886,139.333206 573.771606,139.020798
	C565.059753,135.612823 566.081055,128.471878 566.083130,121.718712
	C566.086304,111.389572 566.095459,101.060417 566.078247,90.731308
	C566.069031,85.194221 569.499817,80.064011 574.669739,77.974937
	C580.009033,75.817429 584.429932,77.936920 585.746338,83.514023
	C586.236511,85.590675 586.244446,87.810081 586.256653,89.965607
	C586.308472,99.128258 586.497986,108.298172 586.213379,117.452248
	C585.968384,125.334656 589.038086,134.324387 579.849548,139.972916
	C590.856323,139.972916 601.863159,139.972916 612.869934,139.972916
	C604.424866,135.552856 606.001038,127.929276 605.953552,120.956375
	C605.898010,112.793404 606.034912,104.628258 605.903992,96.467003
	C605.829468,91.822418 605.840820,87.101807 605.020935,82.558456
	C602.927856,70.960449 594.222351,65.051895 582.541138,66.681664
	C574.523254,67.800331 569.081604,72.650330 564.421326,79.257637
	C561.144348,70.603363 554.899536,66.442894 546.287354,66.389336
	C538.111206,66.338493 531.589172,70.304100 525.880859,77.784203
	C525.880859,73.234703 525.880859,70.155838 525.880859,67.368225
	C516.984619,70.325752 508.346100,73.197617 499.020142,76.298004
	C506.460510,78.838074 506.707764,84.631462 506.668640,90.628090
	C506.612061,99.290855 506.893066,107.962624 506.588684,116.615021
	C506.300293,124.812477 509.384583,134.152344 498.095520,139.968170
	C510.858063,139.968170 521.862183,139.968170 532.866333,139.968170
	C528.392944,136.786911 526.103943,132.899231 526.094971,127.733376
	C526.072510,114.905296 526.007202,102.076454 526.120178,89.249344
	C526.171387,83.445740 532.997375,76.995605 538.605652,77.105644
	C543.554810,77.202751 546.148682,80.913078 546.248291,88.509766
	C546.361938,97.171440 546.278015,105.835716 546.279846,115.498093
M487.256897,140.540283
	C489.631927,140.439957 492.006958,140.339615 494.381989,140.239288
	C494.491547,139.736923 494.601074,139.234543 494.710602,138.732162
	C488.048431,136.097885 487.505554,130.634354 487.515900,124.759148
	C487.568787,94.767815 487.545044,64.776337 487.528412,34.784912
	C487.527435,33.056957 487.352478,31.329102 487.283569,30.061810
	C478.289612,32.951202 469.803772,35.677368 461.140472,38.460545
	C461.129639,38.431770 461.233002,39.450523 461.593689,39.551655
	C466.342743,40.883282 467.527130,44.852932 467.709442,48.815300
	C468.072968,56.716228 467.817169,64.645653 467.817169,72.166336
	C463.838501,70.334717 460.194489,67.821144 456.198090,66.978218
	C445.338348,64.687660 433.596222,70.659561 428.110138,80.723373
	C420.101746,95.414215 420.270050,110.496597 427.313324,125.297821
	C435.797760,143.127502 455.432465,145.136047 466.412018,133.505554
	C466.703827,133.196457 467.292542,133.167633 467.788330,132.991989
	C468.029755,133.883011 468.406067,134.673569 468.434418,135.476395
	C468.583710,139.707977 470.678253,141.064011 474.828674,140.625320
	C478.618652,140.224716 482.484283,140.540222 487.256897,140.540283
M691.989502,69.250641
	C689.195740,71.669258 686.401978,74.087868 683.127625,76.922508
	C683.127625,73.336563 683.127625,70.257248 683.127625,67.411827
	C674.181824,70.346664 665.542786,73.180855 656.372498,76.189331
	C663.474243,78.840332 663.859375,84.584038 663.832336,90.568382
	C663.793152,99.226929 664.062256,107.894341 663.753296,116.542030
	C663.460205,124.745773 666.611633,134.121964 656.973450,139.991257
	C667.975769,139.991257 678.978088,139.991257 689.980469,139.991257
	C690.302673,139.628067 690.624817,139.264877 690.947021,138.901672
	C685.033020,136.901840 683.218079,132.564163 683.198425,127.315926
	C683.150330,114.494553 683.084900,101.671814 683.225708,88.851814
	C683.284363,83.517792 690.240967,77.124451 695.544250,77.093689
	C700.397644,77.065536 703.202820,80.458542 703.411438,87.741348
	C703.721191,98.554588 703.667786,109.380310 703.640442,120.200394
	C703.622314,127.342239 704.970276,135.039185 696.943726,139.983673
	C707.942383,139.983673 718.941040,139.983673 729.939697,139.983673
	C720.861511,134.545822 723.398743,125.766075 723.223083,117.953926
	C722.987183,107.469406 723.625122,96.932907 722.778381,86.508842
	C722.386780,81.688225 720.261902,76.411438 717.346069,72.524200
	C712.182129,65.639763 703.052673,64.851906 691.989502,69.250641
M405.114960,77.447235
	C395.520325,66.204239 376.543427,62.476891 363.668610,69.419319
	C356.913849,73.061653 352.510223,78.347321 352.924408,86.521957
	C353.223145,92.418068 357.677795,96.795959 363.109009,96.703117
	C368.756073,96.606583 373.438843,92.396713 373.196564,86.578484
	C373.048523,83.023491 371.290863,79.535522 370.110687,75.522888
	C372.453613,72.792801 375.946991,71.867645 379.995270,72.721519
	C385.513031,73.885361 388.909637,77.948593 389.890717,84.458504
	C391.047729,92.135880 390.081299,94.043434 382.916656,96.958107
	C378.314392,98.830353 373.456085,100.100319 368.931244,102.128250
	C364.134552,104.278023 359.078430,106.369286 355.071136,109.634300
	C349.511292,114.164284 348.692230,122.810234 351.970764,129.904968
	C355.070862,136.613632 363.018005,140.792297 371.359222,140.648483
	C378.941956,140.517746 384.856781,136.873077 390.446442,132.006866
	C393.037354,142.471771 390.973175,140.285278 400.650635,140.503616
	C404.808899,140.597458 408.973755,140.453156 413.134308,140.359222
	C414.421753,140.330154 415.704865,140.110397 416.989990,139.977936
	C409.918304,135.755722 410.021820,129.392365 410.064636,122.985779
	C410.129120,113.329628 410.589233,103.635338 409.882721,94.030701
	C409.483978,88.609848 407.086304,83.336021 405.114960,77.447235
M485.856903,203.692657
	C473.284668,188.445175 445.876434,188.262848 434.215240,208.974777
	C427.860504,220.261703 427.329407,232.357971 430.993500,244.668671
	C434.936584,257.916687 446.006989,267.076141 459.024628,267.973358
	C473.772003,268.989838 485.345856,262.201416 491.136658,248.500015
	C497.704041,232.961197 496.245819,218.076065 485.856903,203.692657
M559.521118,206.068726
	C552.936279,215.991501 550.994385,226.859283 553.053589,238.487961
	C555.656616,253.187286 565.750366,264.751556 577.986145,267.186096
	C593.363953,270.245758 608.593872,260.725677 614.380432,244.957779
	C613.204163,243.528656 612.230774,242.345963 612.033936,242.106812
	C607.159668,246.355362 602.872009,251.464386 597.435852,254.549744
	C585.567322,261.285889 573.676086,253.959702 573.032166,239.789322
	C586.583374,234.828125 600.262329,229.820160 614.096313,224.755447
	C613.947144,214.886093 611.557434,206.183121 604.209229,199.378967
	C594.612000,190.492233 572.334045,188.956818 559.521118,206.068726
M646.847961,159.944305
	C646.735229,158.724258 646.622498,157.504211 646.555725,156.782043
	C637.614197,159.677017 629.001099,162.465652 619.801453,165.444214
	C629.168274,169.088074 627.093384,177.180405 627.122070,184.411194
	C627.205994,205.552979 627.176758,226.695374 627.137817,247.837418
	C627.124939,254.802490 628.661316,262.398285 620.352356,266.638641
	C631.434937,266.638641 642.517456,266.638641 653.600037,266.638641
	C646.701782,262.941162 646.804016,256.910095 646.817871,250.745255
	C646.884949,220.780167 646.848083,190.814880 646.847961,159.944305
M526.849915,233.497086
	C526.849915,222.917572 526.849915,212.338043 526.849915,201.308899
	C531.975220,201.956680 536.343079,202.508728 540.784912,203.070114
	C540.784912,200.328339 540.784912,197.762680 540.784912,194.799225
	C536.071533,194.799225 531.644775,194.799225 526.767212,194.799225
	C526.767212,188.685669 526.767212,182.963058 526.767212,177.240433
	C526.328674,176.873505 525.890076,176.506561 525.451538,176.139633
	C519.205139,185.640839 512.824524,194.962814 500.538940,196.249634
	C500.538940,198.023880 500.538940,199.545258 500.538940,201.122040
	C502.864807,201.306976 504.817017,201.462189 507.150024,201.647675
	C507.150024,210.997665 507.030365,220.130981 507.186584,229.259583
	C507.320129,237.065109 507.195099,244.940933 508.210358,252.650589
	C509.880371,265.332489 522.343506,271.837036 533.567078,266.462769
	C539.641724,263.553955 542.821472,258.281860 545.664124,252.483932
	C547.345886,249.053711 546.344299,247.450546 543.175659,245.913864
	C542.654114,247.367722 542.351990,248.679153 541.741394,249.826447
	C539.731384,253.603043 537.236816,257.466217 532.387390,256.578949
	C527.795837,255.738861 527.323120,251.340530 527.103943,247.466019
	C526.859863,243.151367 526.921387,238.819412 526.849915,233.497086
M625.052612,87.857597
	C625.036743,101.335442 625.025635,114.813301 625.002258,128.291138
	C624.994812,132.611786 623.606750,136.084961 619.253479,137.841476
	C618.677429,138.073914 618.353394,138.930893 617.475769,140.061401
	C629.244995,140.061401 640.303162,140.061401 651.361328,140.061401
	C643.058472,135.022537 644.778198,127.081848 644.747986,119.801506
	C644.681702,103.827644 644.734985,87.853317 644.715698,71.879204
	C644.713806,70.301430 644.548157,68.723854 644.472900,67.399612
	C635.463135,70.366516 626.804871,73.217644 617.653198,76.231277
	C622.831055,78.151802 625.124878,81.802956 625.052612,87.857597
M627.619141,39.084370
	C623.604858,43.626999 622.666382,48.336311 625.019653,52.605061
	C627.438599,56.992786 631.327332,58.825165 636.174072,58.343349
	C640.929321,57.870625 644.043579,54.992123 645.400574,50.524811
	C646.845886,45.766609 645.382812,41.672947 641.455811,38.656342
	C637.120789,35.326420 632.635864,35.579620 627.619141,39.084370
z"/>
<path fill="inherit" opacity="1.000000" stroke="none"
	d="
M291.085144,147.019272
	C291.861572,213.629593 245.666443,269.062378 182.669769,281.260040
	C129.059631,291.640259 83.320183,274.752930 49.737637,231.499802
	C15.342361,187.199905 11.055985,137.931702 35.637939,87.764259
	C55.814587,46.587269 89.650925,23.048065 136.447281,22.253103
	C184.817505,21.431408 225.397079,49.681873 243.308105,93.153725
	C255.494003,122.730171 254.127762,152.193787 241.947556,181.123978
	C239.401367,174.712372 237.553467,167.820938 234.122711,161.836960
	C223.542938,143.383453 201.112076,134.772324 180.684418,140.650696
	C160.318207,146.511398 146.363632,165.877472 147.053192,187.323944
	C147.666290,206.392563 161.417175,224.567841 179.358444,230.023514
	C198.920273,235.971985 218.380508,229.538864 230.366287,213.250305
	C247.703278,189.689468 258.418396,163.783279 257.929230,134.083862
	C257.017609,78.733231 220.020950,32.611248 165.651260,19.200201
	C157.464859,17.180910 148.937500,16.543926 140.903854,15.318757
	C146.377304,10.236575 187.202347,14.598907 208.200012,24.278198
	C260.227417,48.261295 288.374634,88.877251 291.085144,147.019272
z"/>
<path fill="#413E39" opacity="1.000000" stroke="none"
	d="
M546.279907,114.998474
	C546.278015,105.835716 546.361938,97.171440 546.248291,88.509766
	C546.148682,80.913078 543.554810,77.202751 538.605652,77.105644
	C532.997375,76.995605 526.171387,83.445740 526.120178,89.249344
	C526.007202,102.076454 526.072510,114.905296 526.094971,127.733376
	C526.103943,132.899231 528.392944,136.786911 532.866333,139.968170
	C521.862183,139.968170 510.858063,139.968170 498.095520,139.968170
	C509.384583,134.152344 506.300293,124.812477 506.588684,116.615021
	C506.893066,107.962624 506.612061,99.290855 506.668640,90.628090
	C506.707764,84.631462 506.460510,78.838074 499.020142,76.298004
	C508.346100,73.197617 516.984619,70.325752 525.880859,67.368225
	C525.880859,70.155838 525.880859,73.234703 525.880859,77.784203
	C531.589172,70.304100 538.111206,66.338493 546.287354,66.389336
	C554.899536,66.442894 561.144348,70.603363 564.421326,79.257637
	C569.081604,72.650330 574.523254,67.800331 582.541138,66.681664
	C594.222351,65.051895 602.927856,70.960449 605.020935,82.558456
	C605.840820,87.101807 605.829468,91.822418 605.903992,96.467003
	C606.034912,104.628258 605.898010,112.793404 605.953552,120.956375
	C606.001038,127.929276 604.424866,135.552856 612.869934,139.972916
	C601.863159,139.972916 590.856323,139.972916 579.849548,139.972916
	C589.038086,134.324387 585.968384,125.334656 586.213379,117.452248
	C586.497986,108.298172 586.308472,99.128258 586.256653,89.965607
	C586.244446,87.810081 586.236511,85.590675 585.746338,83.514023
	C584.429932,77.936920 580.009033,75.817429 574.669739,77.974937
	C569.499817,80.064011 566.069031,85.194221 566.078247,90.731308
	C566.095459,101.060417 566.086304,111.389572 566.083130,121.718712
	C566.081055,128.471878 565.059753,135.612823 573.771606,139.020798
	C573.470886,139.333206 573.170166,139.645599 572.869446,139.958008
	C561.868347,139.958008 550.867188,139.958008 538.028381,139.958008
	C549.745483,133.702362 545.368591,123.899529 546.279907,114.998474
z"/>
<path fill="#403D38" opacity="1.000000" stroke="none"
	d="
M350.757599,166.657532
	C350.917694,165.746384 350.886383,164.130920 351.266113,164.027710
	C359.440521,161.805801 367.660828,159.752960 376.465576,157.516724
	C376.465576,172.335831 376.465576,187.805267 376.465576,204.845474
	C381.573486,198.049347 386.701233,194.426804 393.762054,193.601868
	C405.638153,192.214355 414.834229,198.531158 415.913513,210.425278
	C416.858887,220.843994 416.509796,231.380875 416.710266,241.865982
	C416.758026,244.364563 416.693756,246.865097 416.721771,249.364288
	C416.793884,255.800003 415.734497,262.698151 424.402466,265.693573
	C424.083496,266.034393 423.764557,266.375183 423.445587,266.716003
	C412.401764,266.716003 401.357910,266.716003 390.287140,266.716003
	C390.237488,266.438629 390.052795,265.887970 390.142456,265.838959
	C396.518097,262.352325 397.162262,256.510559 397.046814,250.075974
	C396.837585,238.415451 397.054352,226.747879 396.925140,215.085098
	C396.839539,207.362473 394.007690,203.823029 388.470123,203.959366
	C383.046661,204.092880 376.764130,210.531845 376.733917,216.180008
	C376.672394,227.677338 376.714813,239.175247 376.717529,250.672913
	C376.718933,256.734192 376.250763,263.005463 384.284241,265.526245
	C384.008942,265.892029 383.733643,266.257812 383.458313,266.623596
	C372.365845,266.623596 361.273346,266.623596 349.731506,266.623596
	C350.257111,265.833771 350.477203,265.072418 350.936584,264.878784
	C356.102783,262.701080 357.080383,258.374298 357.072906,253.420349
	C357.038055,230.258667 357.043640,207.096924 357.049408,183.023941
	C357.027283,179.678757 357.189484,177.221603 356.908295,174.816269
	C356.459717,170.979218 355.399231,167.417511 350.757599,166.657532
z"/>
<path fill="#403E39" opacity="1.000000" stroke="none"
	d="
M486.786743,140.540192
	C482.484283,140.540222 478.618652,140.224716 474.828674,140.625320
	C470.678253,141.064011 468.583710,139.707977 468.434418,135.476395
	C468.406067,134.673569 468.029755,133.883011 467.788330,132.991989
	C467.292542,133.167633 466.703827,133.196457 466.412018,133.505554
	C455.432465,145.136047 435.797760,143.127502 427.313324,125.297821
	C420.270050,110.496597 420.101746,95.414215 428.110138,80.723373
	C433.596222,70.659561 445.338348,64.687660 456.198090,66.978218
	C460.194489,67.821144 463.838501,70.334717 467.817169,72.166336
	C467.817169,64.645653 468.072968,56.716228 467.709442,48.815300
	C467.527130,44.852932 466.342743,40.883282 461.593689,39.551655
	C461.233002,39.450523 461.129639,38.431770 461.140472,38.460545
	C469.803772,35.677368 478.289612,32.951202 487.283569,30.061810
	C487.352478,31.329102 487.527435,33.056957 487.528412,34.784912
	C487.545044,64.776337 487.568787,94.767815 487.515900,124.759148
	C487.505554,130.634354 488.048431,136.097885 494.710602,138.732162
	C494.601074,139.234543 494.491547,139.736923 494.381989,140.239288
	C492.006958,140.339615 489.631927,140.439957 486.786743,140.540192
M460.837372,128.742386
	C466.039307,125.870682 468.731232,122.139717 468.142914,115.531509
	C467.349548,106.620102 467.949310,97.587387 467.862030,88.607605
	C467.848114,87.177696 467.745270,85.519905 467.035675,84.365860
	C464.248505,79.833122 460.070526,77.088287 454.713348,77.177261
	C449.668152,77.261063 446.496002,80.669243 444.713867,85.019852
	C439.561737,97.597221 439.514465,110.319359 445.005249,122.767944
	C448.108704,129.804047 452.661591,131.377426 460.837372,128.742386
z"/>
<path fill="#403D38" opacity="1.000000" stroke="none"
	d="
M692.350525,69.135635
	C703.052673,64.851906 712.182129,65.639763 717.346069,72.524200
	C720.261902,76.411438 722.386780,81.688225 722.778381,86.508842
	C723.625122,96.932907 722.987183,107.469406 723.223083,117.953926
	C723.398743,125.766075 720.861511,134.545822 729.939697,139.983673
	C718.941040,139.983673 707.942383,139.983673 696.943726,139.983673
	C704.970276,135.039185 703.622314,127.342239 703.640442,120.200394
	C703.667786,109.380310 703.721191,98.554588 703.411438,87.741348
	C703.202820,80.458542 700.397644,77.065536 695.544250,77.093689
	C690.240967,77.124451 683.284363,83.517792 683.225708,88.851814
	C683.084900,101.671814 683.150330,114.494553 683.198425,127.315926
	C683.218079,132.564163 685.033020,136.901840 690.947021,138.901672
	C690.624817,139.264877 690.302673,139.628067 689.980469,139.991257
	C678.978088,139.991257 667.975769,139.991257 656.973450,139.991257
	C666.611633,134.121964 663.460205,124.745773 663.753296,116.542030
	C664.062256,107.894341 663.793152,99.226929 663.832336,90.568382
	C663.859375,84.584038 663.474243,78.840332 656.372498,76.189331
	C665.542786,73.180855 674.181824,70.346664 683.127625,67.411827
	C683.127625,70.257248 683.127625,73.336563 683.127625,76.922508
	C686.401978,74.087868 689.195740,71.669258 692.350525,69.135635
z"/>
<path fill="#403D38" opacity="1.000000" stroke="none"
	d="
M405.351990,77.721603
	C407.086304,83.336021 409.483978,88.609848 409.882721,94.030701
	C410.589233,103.635338 410.129120,113.329628 410.064636,122.985779
	C410.021820,129.392365 409.918304,135.755722 416.989990,139.977936
	C415.704865,140.110397 414.421753,140.330154 413.134308,140.359222
	C408.973755,140.453156 404.808899,140.597458 400.650635,140.503616
	C390.973175,140.285278 393.037354,142.471771 390.446442,132.006866
	C384.856781,136.873077 378.941956,140.517746 371.359222,140.648483
	C363.018005,140.792297 355.070862,136.613632 351.970764,129.904968
	C348.692230,122.810234 349.511292,114.164284 355.071136,109.634300
	C359.078430,106.369286 364.134552,104.278023 368.931244,102.128250
	C373.456085,100.100319 378.314392,98.830353 382.916656,96.958107
	C390.081299,94.043434 391.047729,92.135880 389.890717,84.458504
	C388.909637,77.948593 385.513031,73.885361 379.995270,72.721519
	C375.946991,71.867645 372.453613,72.792801 370.110687,75.522888
	C371.290863,79.535522 373.048523,83.023491 373.196564,86.578484
	C373.438843,92.396713 368.756073,96.606583 363.109009,96.703117
	C357.677795,96.795959 353.223145,92.418068 352.924408,86.521957
	C352.510223,78.347321 356.913849,73.061653 363.668610,69.419319
	C376.543427,62.476891 395.520325,66.204239 405.351990,77.721603
M389.705414,123.854988
	C390.085114,115.593422 390.464844,107.331863 390.890747,98.064880
	C385.244080,102.111961 380.812683,105.272888 376.403412,108.464401
	C375.736847,108.946907 375.147400,109.546211 374.566132,110.134811
	C369.250916,115.517128 368.230042,123.888130 372.372314,128.031128
	C376.421387,132.080917 383.730682,130.533539 389.705414,123.854988
z"/>
<path fill="#403D38" opacity="1.000000" stroke="none"
	d="
M486.110107,203.948547
	C496.245819,218.076065 497.704041,232.961197 491.136658,248.500015
	C485.345856,262.201416 473.772003,268.989838 459.024628,267.973358
	C446.006989,267.076141 434.936584,257.916687 430.993500,244.668671
	C427.329407,232.357971 427.860504,220.261703 434.215240,208.974777
	C445.876434,188.262848 473.284668,188.445175 486.110107,203.948547
M456.033356,201.294556
	C454.233002,204.425766 451.687042,207.352737 450.763580,210.724136
	C447.097992,224.106598 447.107971,237.642792 450.931305,251.019928
	C452.882935,257.848297 457.146027,261.744598 461.847870,261.846130
	C466.480194,261.946106 470.624664,258.136169 472.781433,251.122635
	C476.318939,239.619095 476.150848,227.851868 474.265015,216.121017
	C473.672150,212.432892 472.421570,208.704605 470.731232,205.370270
	C467.569336,199.133148 463.216492,197.956100 456.033356,201.294556
z"/>
<path fill="#403D38" opacity="1.000000" stroke="none"
	d="
M559.727051,205.773819
	C572.334045,188.956818 594.612000,190.492233 604.209229,199.378967
	C611.557434,206.183121 613.947144,214.886093 614.096313,224.755447
	C600.262329,229.820160 586.583374,234.828125 573.032166,239.789322
	C573.676086,253.959702 585.567322,261.285889 597.435852,254.549744
	C602.872009,251.464386 607.159668,246.355362 612.033936,242.106812
	C612.230774,242.345963 613.204163,243.528656 614.380432,244.957779
	C608.593872,260.725677 593.363953,270.245758 577.986145,267.186096
	C565.750366,264.751556 555.656616,253.187286 553.053589,238.487961
	C550.994385,226.859283 552.936279,215.991501 559.727051,205.773819
M578.202332,202.698486
	C571.761902,211.801468 571.920532,222.245621 571.771423,233.288544
	C579.219238,230.672134 586.219177,228.300461 593.122437,225.674393
	C593.959534,225.355942 594.812622,223.628922 594.742188,222.618607
	C594.375061,217.351547 594.242859,211.978790 593.030579,206.880203
	C591.052368,198.560364 585.809509,197.034286 578.202332,202.698486
z"/>
<path fill="#413E39" opacity="1.000000" stroke="none"
	d="
M646.848022,160.396973
	C646.848083,190.814880 646.884949,220.780167 646.817871,250.745255
	C646.804016,256.910095 646.701782,262.941162 653.600037,266.638641
	C642.517456,266.638641 631.434937,266.638641 620.352356,266.638641
	C628.661316,262.398285 627.124939,254.802490 627.137817,247.837418
	C627.176758,226.695374 627.205994,205.552979 627.122070,184.411194
	C627.093384,177.180405 629.168274,169.088074 619.801453,165.444214
	C629.001099,162.465652 637.614197,159.677017 646.555725,156.782043
	C646.622498,157.504211 646.735229,158.724258 646.848022,160.396973
z"/>
<path fill="#413E3A" opacity="1.000000" stroke="none"
	d="
M526.849915,233.996033
	C526.921387,238.819412 526.859863,243.151367 527.103943,247.466019
	C527.323120,251.340530 527.795837,255.738861 532.387390,256.578949
	C537.236816,257.466217 539.731384,253.603043 541.741394,249.826447
	C542.351990,248.679153 542.654114,247.367722 543.175659,245.913864
	C546.344299,247.450546 547.345886,249.053711 545.664124,252.483932
	C542.821472,258.281860 539.641724,263.553955 533.567078,266.462769
	C522.343506,271.837036 509.880371,265.332489 508.210358,252.650589
	C507.195099,244.940933 507.320129,237.065109 507.186584,229.259583
	C507.030365,220.130981 507.150024,210.997665 507.150024,201.647675
	C504.817017,201.462189 502.864807,201.306976 500.538940,201.122040
	C500.538940,199.545258 500.538940,198.023880 500.538940,196.249634
	C512.824524,194.962814 519.205139,185.640839 525.451538,176.139633
	C525.890076,176.506561 526.328674,176.873505 526.767212,177.240433
	C526.767212,182.963058 526.767212,188.685669 526.767212,194.799225
	C531.644775,194.799225 536.071533,194.799225 540.784912,194.799225
	C540.784912,197.762680 540.784912,200.328339 540.784912,203.070114
	C536.343079,202.508728 531.975220,201.956680 526.849915,201.308899
	C526.849915,212.338043 526.849915,222.917572 526.849915,233.996033
z"/>
<path fill="#43403B" opacity="1.000000" stroke="none"
	d="
M625.050781,87.404129
	C625.124878,81.802956 622.831055,78.151802 617.653198,76.231277
	C626.804871,73.217644 635.463135,70.366516 644.472900,67.399612
	C644.548157,68.723854 644.713806,70.301430 644.715698,71.879204
	C644.734985,87.853317 644.681702,103.827644 644.747986,119.801506
	C644.778198,127.081848 643.058472,135.022537 651.361328,140.061401
	C640.303162,140.061401 629.244995,140.061401 617.475769,140.061401
	C618.353394,138.930893 618.677429,138.073914 619.253479,137.841476
	C623.606750,136.084961 624.994812,132.611786 625.002258,128.291138
	C625.025635,114.813301 625.036743,101.335442 625.050781,87.404129
z"/>
<path fill="#423F3A" opacity="1.000000" stroke="none"
	d="
M627.912476,38.842499
	C632.635864,35.579620 637.120789,35.326420 641.455811,38.656342
	C645.382812,41.672947 646.845886,45.766609 645.400574,50.524811
	C644.043579,54.992123 640.929321,57.870625 636.174072,58.343349
	C631.327332,58.825165 627.438599,56.992786 625.019653,52.605061
	C622.666382,48.336311 623.604858,43.626999 627.912476,38.842499
z"/>
<path fill="#F1F1F0" opacity="1.000000" stroke="none"
	d="
M350.417664,166.811920
	C355.399231,167.417511 356.459717,170.979218 356.908295,174.816269
	C357.189484,177.221603 357.027283,179.678757 356.972687,182.561432
	C356.274536,182.794327 355.254059,182.720749 355.123444,182.341049
	C353.369080,177.241074 351.738770,172.098404 350.417664,166.811920
z"/>
<path fill="#FCFCFC" opacity="1.000000" stroke="none"
	d="
M460.460541,128.859253
	C452.661591,131.377426 448.108704,129.804047 445.005249,122.767944
	C439.514465,110.319359 439.561737,97.597221 444.713867,85.019852
	C446.496002,80.669243 449.668152,77.261063 454.713348,77.177261
	C460.070526,77.088287 464.248505,79.833122 467.035675,84.365860
	C467.745270,85.519905 467.848114,87.177696 467.862030,88.607605
	C467.949310,97.587387 467.349548,106.620102 468.142914,115.531509
	C468.731232,122.139717 466.039307,125.870682 460.460541,128.859253
z"/>
<path fill="#F8F8F8" opacity="1.000000" stroke="none"
	d="
M389.461975,124.159882
	C383.730682,130.533539 376.421387,132.080917 372.372314,128.031128
	C368.230042,123.888130 369.250916,115.517128 374.566132,110.134811
	C375.147400,109.546211 375.736847,108.946907 376.403412,108.464401
	C380.812683,105.272888 385.244080,102.111961 390.890747,98.064880
	C390.464844,107.331863 390.085114,115.593422 389.461975,124.159882
z"/>
<path fill="#FCFCFC" opacity="1.000000" stroke="none"
	d="
M456.355133,201.096771
	C463.216492,197.956100 467.569336,199.133148 470.731232,205.370270
	C472.421570,208.704605 473.672150,212.432892 474.265015,216.121017
	C476.150848,227.851868 476.318939,239.619095 472.781433,251.122635
	C470.624664,258.136169 466.480194,261.946106 461.847870,261.846130
	C457.146027,261.744598 452.882935,257.848297 450.931305,251.019928
	C447.107971,237.642792 447.097992,224.106598 450.763580,210.724136
	C451.687042,207.352737 454.233002,204.425766 456.355133,201.096771
z"/>
<path fill="#FBFBFB" opacity="1.000000" stroke="none"
	d="
M578.448059,202.417755
	C585.809509,197.034286 591.052368,198.560364 593.030579,206.880203
	C594.242859,211.978790 594.375061,217.351547 594.742188,222.618607
	C594.812622,223.628922 593.959534,225.355942 593.122437,225.674393
	C586.219177,228.300461 579.219238,230.672134 571.771423,233.288544
	C571.920532,222.245621 571.761902,211.801468 578.448059,202.417755
z"/>
</svg>
